<svg width="719" height="203" viewBox="0 0 719 203" fill="none" xmlns="http://www.w3.org/2000/svg">
<g filter="url(#filter0_ii_60_14)">
<path d="M8 34.3142C8 23.3414 16.841 14.4175 27.8134 14.3151L685.005 8.18194C695.851 8.08071 704.801 16.644 705.179 27.4844L710.279 173.803C710.673 185.115 701.61 194.5 690.291 194.5H28C16.9543 194.5 8 185.546 8 174.5V34.3142Z" fill="url(#paint0_linear_60_14)"/>
</g>
<path d="M27.776 10.3153C14.6091 10.4381 4 21.1468 4 34.3142V174.5C4 187.755 14.7451 198.5 28 198.5H690.291C703.873 198.5 714.749 187.238 714.276 173.664L709.177 27.3451C708.723 14.3366 697.983 4.06064 684.967 4.18211L27.776 10.3153Z" stroke="white" stroke-width="8"/>
<defs>
<filter id="filter0_ii_60_14" x="0" y="-16.1083" width="718.291" height="218.608" filterUnits="userSpaceOnUse" color-interpolation-filters="sRGB">
<feFlood flood-opacity="0" result="BackgroundImageFix"/>
<feBlend mode="normal" in="SourceGraphic" in2="BackgroundImageFix" result="shape"/>
<feColorMatrix in="SourceAlpha" type="matrix" values="0 0 0 0 0 0 0 0 0 0 0 0 0 0 0 0 0 0 127 0" result="hardAlpha"/>
<feOffset dy="-16.289"/>
<feGaussianBlur stdDeviation="10"/>
<feComposite in2="hardAlpha" operator="arithmetic" k2="-1" k3="1"/>
<feColorMatrix type="matrix" values="0 0 0 0 0.0260938 0 0 0 0 0.117323 0 0 0 0 0.1875 0 0 0 1 0"/>
<feBlend mode="normal" in2="shape" result="effect1_innerShadow_60_14"/>
<feColorMatrix in="SourceAlpha" type="matrix" values="0 0 0 0 0 0 0 0 0 0 0 0 0 0 0 0 0 0 127 0" result="hardAlpha"/>
<feOffset dy="-8.1445"/>
<feGaussianBlur stdDeviation="5"/>
<feComposite in2="hardAlpha" operator="arithmetic" k2="-1" k3="1"/>
<feColorMatrix type="matrix" values="0 0 0 0 0.570833 0 0 0 0 0.570833 0 0 0 0 0.570833 0 0 0 1 0"/>
<feBlend mode="normal" in2="effect1_innerShadow_60_14" result="effect2_innerShadow_60_14"/>
</filter>
<linearGradient id="paint0_linear_60_14" x1="359.5" y1="8" x2="359.5" y2="194.5" gradientUnits="userSpaceOnUse">
<stop stop-color="#979DB3"/>
<stop offset="1" stop-color="#676C7D"/>
</linearGradient>
</defs>
</svg>
