<svg width="344" height="319" viewBox="0 0 344 319" fill="none" xmlns="http://www.w3.org/2000/svg">
<mask id="path-1-outside-1_1_224" maskUnits="userSpaceOnUse" x="0" y="0" width="344" height="319" fill="black">
<rect fill="white" width="344" height="319"/>
<path fill-rule="evenodd" clip-rule="evenodd" d="M171.738 8C113.63 8 63.1587 40.6995 37.7222 88.7012C18.9197 96.3792 15.5413 103.74 11.4793 119.988C11.3179 120.633 11.1522 121.285 10.9849 121.944L10.9847 121.945C7.61034 135.222 3.567 151.132 20.7411 169.674C25.9748 248.601 91.6529 311 171.905 311C227.584 311 276.247 280.964 302.576 236.211C304.325 236.092 306.087 235.967 307.862 235.838C314.298 235.516 327.943 229.466 331.032 207.841C331.734 202.926 332.628 198.458 333.451 194.338L333.452 194.338C336.75 177.845 338.933 166.932 323.249 155.27C320.972 73.5488 254.01 8 171.738 8Z"/>
</mask>
<path d="M37.7222 88.7012L40.7465 96.1075L43.4325 95.0107L44.791 92.4471L37.7222 88.7012ZM11.4793 119.988L3.7182 118.048L3.71819 118.048L11.4793 119.988ZM10.9849 121.944L18.7378 123.917L18.7384 123.914L10.9849 121.944ZM10.9847 121.945L3.23175 119.972L3.23115 119.974L10.9847 121.945ZM20.7411 169.674L28.7236 169.145L28.5361 166.317L26.6104 164.238L20.7411 169.674ZM302.576 236.211L302.033 228.229L297.822 228.516L295.681 232.154L302.576 236.211ZM307.862 235.838L307.462 227.848L307.371 227.852L307.279 227.859L307.862 235.838ZM331.032 207.841L338.951 208.972V208.972L331.032 207.841ZM333.451 194.338L325.642 192.603L325.623 192.686L325.607 192.769L333.451 194.338ZM333.452 194.338L341.261 196.073L341.279 195.99L341.296 195.907L333.452 194.338ZM323.249 155.27L315.252 155.493L315.36 159.374L318.475 161.69L323.249 155.27ZM44.791 92.4471C68.8957 46.9586 116.708 16 171.738 16V0C110.552 0 57.4216 34.4404 30.6533 84.9554L44.791 92.4471ZM19.2405 121.928C21.2753 113.789 22.8318 109.378 25.4226 105.997C27.89 102.778 31.9458 99.7013 40.7465 96.1075L34.6978 81.2949C24.696 85.3792 17.6614 89.8217 12.7235 96.2642C7.90902 102.546 5.74537 109.939 3.7182 118.048L19.2405 121.928ZM18.7384 123.914C18.9051 123.259 19.0747 122.591 19.2405 121.928L3.71819 118.048C3.56122 118.675 3.39939 119.312 3.23135 119.974L18.7384 123.914ZM18.7376 123.918L18.7378 123.917L3.23196 119.971L3.23175 119.972L18.7376 123.918ZM26.6104 164.238C19.1222 156.154 16.668 149.167 16.1252 143.12C15.5508 136.722 17.0133 130.702 18.7382 123.915L3.23115 119.974C1.58167 126.465 -0.664639 135.039 0.18927 144.551C1.07473 154.414 5.18593 164.653 14.8719 175.111L26.6104 164.238ZM171.905 303C95.8938 303 33.6804 243.897 28.7236 169.145L12.7586 170.204C18.2692 253.306 87.4119 319 171.905 319V303ZM295.681 232.154C270.73 274.565 224.634 303 171.905 303V319C230.534 319 281.765 287.363 309.472 240.267L295.681 232.154ZM307.279 227.859C305.517 227.988 303.768 228.111 302.033 228.229L303.12 244.192C304.882 244.072 306.657 243.947 308.444 243.816L307.279 227.859ZM323.112 206.709C320.551 224.638 309.978 227.722 307.462 227.848L308.261 243.828C318.618 243.31 335.334 234.294 338.951 208.972L323.112 206.709ZM325.607 192.769C324.786 196.871 323.85 201.545 323.112 206.709L338.951 208.972C339.618 204.307 340.469 200.045 341.296 195.907L325.607 192.769ZM325.642 192.602L325.642 192.603L341.261 196.074L341.261 196.073L325.642 192.602ZM318.475 161.69C325.064 166.59 326.972 170.537 327.57 174.26C328.297 178.793 327.342 184.095 325.607 192.769L341.296 195.907C342.86 188.088 344.645 179.688 343.367 171.725C341.96 162.953 337.117 155.613 328.022 148.851L318.475 161.69ZM171.738 16C249.666 16 313.096 78.0892 315.252 155.493L331.246 155.048C328.849 69.0084 258.354 0 171.738 0V16Z" fill="white" mask="url(#path-1-outside-1_1_224)"/>
<g filter="url(#filter0_ii_1_224)">
<path d="M323.361 159.5C323.361 243.171 255.532 311 171.861 311C88.1902 311 20.3613 243.171 20.3613 159.5C20.3613 159.5 88.1902 165.29 171.861 165.29C255.532 165.29 323.361 159.5 323.361 159.5Z" fill="url(#paint0_linear_1_224)"/>
</g>
<g filter="url(#filter1_ii_1_224)">
<path fill-rule="evenodd" clip-rule="evenodd" d="M37.7222 88.7012C63.1587 40.6995 113.63 8 171.738 8C254.01 8 320.972 73.5488 323.249 155.27C338.933 166.932 336.75 177.845 333.452 194.338C332.628 198.458 331.734 202.926 331.032 207.841C327.943 229.466 314.298 235.516 307.862 235.838C175.6 245.492 115.744 226.184 56.8539 195.29C-0.0667076 165.43 6.14662 140.982 10.9847 121.945C11.1521 121.286 11.3179 120.634 11.4793 119.988C15.5413 103.74 18.9197 96.3792 37.7222 88.7012Z" fill="url(#paint1_linear_1_224)"/>
</g>
<path d="M122.572 115.625C130.302 107.799 133.2 119.537 148.659 123.45C164.118 127.363 181.509 125.407 176.678 140.079C173.115 150.901 156.389 159.642 139.964 155.73C123.538 151.817 114.843 123.45 122.572 115.625Z" fill="black"/>
<circle cx="88.7135" cy="98.1959" r="18.3209" fill="black"/>
<ellipse cx="218.37" cy="145.759" rx="18.3209" ry="18.6733" fill="black"/>
<defs>
<filter id="filter0_ii_1_224" x="20.3613" y="151.454" width="303" height="159.546" filterUnits="userSpaceOnUse" color-interpolation-filters="sRGB">
<feFlood flood-opacity="0" result="BackgroundImageFix"/>
<feBlend mode="normal" in="SourceGraphic" in2="BackgroundImageFix" result="shape"/>
<feColorMatrix in="SourceAlpha" type="matrix" values="0 0 0 0 0 0 0 0 0 0 0 0 0 0 0 0 0 0 127 0" result="hardAlpha"/>
<feOffset dy="-8.04566"/>
<feGaussianBlur stdDeviation="16.5942"/>
<feComposite in2="hardAlpha" operator="arithmetic" k2="-1" k3="1"/>
<feColorMatrix type="matrix" values="0 0 0 0 1 0 0 0 0 0.341176 0 0 0 0 0.407843 0 0 0 1 0"/>
<feBlend mode="normal" in2="shape" result="effect1_innerShadow_1_224"/>
<feColorMatrix in="SourceAlpha" type="matrix" values="0 0 0 0 0 0 0 0 0 0 0 0 0 0 0 0 0 0 127 0" result="hardAlpha"/>
<feOffset dy="-4.02283"/>
<feGaussianBlur stdDeviation="15.5885"/>
<feComposite in2="hardAlpha" operator="arithmetic" k2="-1" k3="1"/>
<feColorMatrix type="matrix" values="0 0 0 0 0.950588 0 0 0 0 0.607843 0 0 0 0 0.980392 0 0 0 1 0"/>
<feBlend mode="normal" in2="effect1_innerShadow_1_224" result="effect2_innerShadow_1_224"/>
</filter>
<filter id="filter1_ii_1_224" x="8" y="-0.0456638" width="327.809" height="238.384" filterUnits="userSpaceOnUse" color-interpolation-filters="sRGB">
<feFlood flood-opacity="0" result="BackgroundImageFix"/>
<feBlend mode="normal" in="SourceGraphic" in2="BackgroundImageFix" result="shape"/>
<feColorMatrix in="SourceAlpha" type="matrix" values="0 0 0 0 0 0 0 0 0 0 0 0 0 0 0 0 0 0 127 0" result="hardAlpha"/>
<feOffset dy="-8.04566"/>
<feGaussianBlur stdDeviation="16.5942"/>
<feComposite in2="hardAlpha" operator="arithmetic" k2="-1" k3="1"/>
<feColorMatrix type="matrix" values="0 0 0 0 1 0 0 0 0 0.66 0 0 0 0 0 0 0 0 1 0"/>
<feBlend mode="normal" in2="shape" result="effect1_innerShadow_1_224"/>
<feColorMatrix in="SourceAlpha" type="matrix" values="0 0 0 0 0 0 0 0 0 0 0 0 0 0 0 0 0 0 127 0" result="hardAlpha"/>
<feOffset dy="-4.02283"/>
<feGaussianBlur stdDeviation="15.5885"/>
<feComposite in2="hardAlpha" operator="arithmetic" k2="-1" k3="1"/>
<feColorMatrix type="matrix" values="0 0 0 0 0.980392 0 0 0 0 0.607843 0 0 0 0 0.760784 0 0 0 1 0"/>
<feBlend mode="normal" in2="effect1_innerShadow_1_224" result="effect2_innerShadow_1_224"/>
</filter>
<linearGradient id="paint0_linear_1_224" x1="147.089" y1="244.216" x2="171.861" y2="311" gradientUnits="userSpaceOnUse">
<stop stop-color="#F4628F"/>
<stop offset="1" stop-color="#BA77C8"/>
</linearGradient>
<linearGradient id="paint1_linear_1_224" x1="171.905" y1="8" x2="171.905" y2="238.338" gradientUnits="userSpaceOnUse">
<stop stop-color="#FFD24B"/>
<stop offset="1" stop-color="#FF3774"/>
</linearGradient>
</defs>
</svg>
