<svg width="61" height="61" viewBox="0 0 61 61" fill="none" xmlns="http://www.w3.org/2000/svg">
<g filter="url(#filter0_ii_60_43)">
<g filter="url(#filter1_ii_60_43)">
<path d="M53.4854 35.3911C52.5181 39.9368 50.2247 44.0936 46.8951 47.336C43.5656 50.5783 39.3494 52.7606 34.7797 53.607C30.2099 54.4534 25.4918 53.9258 21.2219 52.0909C16.952 50.256 13.3221 47.1963 10.791 43.2986C8.25986 39.4009 6.94131 34.8401 7.00201 30.1931C7.0627 25.546 8.49992 21.0213 11.132 17.191C13.764 13.3607 17.4727 10.3968 21.789 8.67413C26.1054 6.95142 30.8356 6.54722 35.3817 7.51265C38.4012 8.15389 41.2649 9.38375 43.809 11.132C46.3531 12.8802 48.5278 15.1125 50.209 17.7014C51.8902 20.2903 53.0448 23.1851 53.607 26.2203C54.1692 29.2556 54.1278 32.3719 53.4854 35.3911V35.3911Z" fill="url(#paint0_radial_60_43)"/>
</g>
<path d="M48.9881 49.4852C52.7427 45.829 55.3289 41.1415 56.4197 36.0155C57.1442 32.6108 57.1908 29.0967 56.5568 25.674C55.9229 22.2513 54.6209 18.987 52.7251 16.0675C50.8293 13.1481 48.3769 10.6308 45.508 8.65945C42.6391 6.68805 39.4099 5.30119 36.0049 4.57809C30.8785 3.48941 25.5444 3.94521 20.677 5.88785C15.8096 7.83049 11.6275 11.1727 8.65944 15.492C5.6914 19.8113 4.0707 24.9136 4.00226 30.1539C3.93382 35.3942 5.42069 40.5371 8.27492 44.9325C11.1291 49.3278 15.2225 52.7781 20.0375 54.8472C24.8525 56.9163 30.1729 57.5113 35.326 56.5568C40.4791 55.6024 45.2335 53.1415 48.9881 49.4852Z" stroke="white" stroke-width="6"/>
<mask id="mask0_60_43" style="mask-type:alpha" maskUnits="userSpaceOnUse" x="7" y="7" width="47" height="47">
<path d="M53.4854 35.3911C52.5181 39.9368 50.2247 44.0936 46.8951 47.336C43.5656 50.5783 39.3494 52.7606 34.7797 53.607C30.2099 54.4534 25.4918 53.9258 21.2219 52.0909C16.952 50.256 13.3221 47.1963 10.791 43.2986C8.25986 39.4009 6.94131 34.8401 7.00201 30.1931C7.0627 25.546 8.49992 21.0213 11.132 17.191C13.764 13.3607 17.4727 10.3968 21.789 8.67413C26.1054 6.95142 30.8356 6.54722 35.3817 7.51265C38.4012 8.15389 41.2649 9.38375 43.809 11.132C46.3531 12.8802 48.5278 15.1125 50.209 17.7014C51.8902 20.2903 53.0448 23.1851 53.607 26.2203C54.1692 29.2556 54.1278 32.3719 53.4854 35.3911V35.3911Z" fill="url(#paint1_radial_60_43)"/>
</mask>
<g mask="url(#mask0_60_43)">
<g filter="url(#filter2_ii_60_43)">
<path fill-rule="evenodd" clip-rule="evenodd" d="M53.5584 26.0776C41.5185 24.1834 32.7967 28.9783 30.4875 30.4327C32.8946 19.5516 43.2588 10.7771 43.2588 10.7771L36.7961 0.873047L25.5752 7.51347C23.6866 19.518 28.4479 28.224 29.9175 30.564C19.0804 28.185 10.7998 18.2252 10.7998 18.2252L0.386719 24.2759L7.72188 35.626C19.6393 37.5109 27.8327 32.7042 30.0813 31.1729C27.6878 42.0012 17.7472 50.2799 17.7472 50.2799L23.7898 60.6849L35.148 53.3497C37.0228 41.4533 32.241 33.2678 30.7026 31.0023C41.5478 33.4137 50.3109 43.745 50.3109 43.745L60.2231 37.2823L53.5584 26.0776Z" fill="url(#paint2_radial_60_43)"/>
</g>
</g>
<g style="mix-blend-mode:hard-light" filter="url(#filter3_f_60_43)">
<circle cx="30.2987" cy="30.2978" r="12.6991" fill="#FEC6E9"/>
</g>
<path opacity="0.6" fill-rule="evenodd" clip-rule="evenodd" d="M29.5137 13.9519C29.5137 12.4802 30.7067 11.2871 32.1784 11.2871C36.3767 11.2871 39.8509 12.5667 42.5491 14.743C45.2182 16.8959 46.9887 19.8114 48.0278 22.8977C48.4974 24.2925 47.7473 25.8039 46.3526 26.2734C44.9578 26.743 43.4464 25.993 42.9768 24.5982C42.1909 22.2638 40.9262 20.2812 39.203 18.8913C37.5089 17.5248 35.2336 16.6167 32.1784 16.6167C30.7067 16.6167 29.5137 15.4236 29.5137 13.9519Z" fill="white"/>
</g>
<defs>
<filter id="filter0_ii_60_43" x="1" y="-22.6427" width="59" height="82.6427" filterUnits="userSpaceOnUse" color-interpolation-filters="sRGB">
<feFlood flood-opacity="0" result="BackgroundImageFix"/>
<feBlend mode="normal" in="SourceGraphic" in2="BackgroundImageFix" result="shape"/>
<feColorMatrix in="SourceAlpha" type="matrix" values="0 0 0 0 0 0 0 0 0 0 0 0 0 0 0 0 0 0 127 0" result="hardAlpha"/>
<feOffset dy="-23.6427"/>
<feGaussianBlur stdDeviation="14.5145"/>
<feComposite in2="hardAlpha" operator="arithmetic" k2="-1" k3="1"/>
<feColorMatrix type="matrix" values="0 0 0 0 0.783333 0 0 0 0 0 0 0 0 0 0.423 0 0 0 0.38 0"/>
<feBlend mode="normal" in2="shape" result="effect1_innerShadow_60_43"/>
<feColorMatrix in="SourceAlpha" type="matrix" values="0 0 0 0 0 0 0 0 0 0 0 0 0 0 0 0 0 0 127 0" result="hardAlpha"/>
<feOffset dy="-11.8213"/>
<feGaussianBlur stdDeviation="7.25725"/>
<feComposite in2="hardAlpha" operator="arithmetic" k2="-1" k3="1"/>
<feColorMatrix type="matrix" values="0 0 0 0 0.915067 0 0 0 0 0.393333 0 0 0 0 1 0 0 0 0.47 0"/>
<feBlend mode="normal" in2="effect1_innerShadow_60_43" result="effect2_innerShadow_60_43"/>
</filter>
<filter id="filter1_ii_60_43" x="1" y="-8.73852" width="59" height="68.7385" filterUnits="userSpaceOnUse" color-interpolation-filters="sRGB">
<feFlood flood-opacity="0" result="BackgroundImageFix"/>
<feBlend mode="normal" in="SourceGraphic" in2="BackgroundImageFix" result="shape"/>
<feColorMatrix in="SourceAlpha" type="matrix" values="0 0 0 0 0 0 0 0 0 0 0 0 0 0 0 0 0 0 127 0" result="hardAlpha"/>
<feOffset dy="-9.73852"/>
<feGaussianBlur stdDeviation="20.0857"/>
<feComposite in2="hardAlpha" operator="arithmetic" k2="-1" k3="1"/>
<feColorMatrix type="matrix" values="0 0 0 0 1 0 0 0 0 0.341176 0 0 0 0 0.407843 0 0 0 1 0"/>
<feBlend mode="normal" in2="shape" result="effect1_innerShadow_60_43"/>
<feColorMatrix in="SourceAlpha" type="matrix" values="0 0 0 0 0 0 0 0 0 0 0 0 0 0 0 0 0 0 127 0" result="hardAlpha"/>
<feOffset dy="-4.86926"/>
<feGaussianBlur stdDeviation="18.8684"/>
<feComposite in2="hardAlpha" operator="arithmetic" k2="-1" k3="1"/>
<feColorMatrix type="matrix" values="0 0 0 0 0.950588 0 0 0 0 0.607843 0 0 0 0 0.980392 0 0 0 1 0"/>
<feBlend mode="normal" in2="effect1_innerShadow_60_43" result="effect2_innerShadow_60_43"/>
</filter>
<filter id="filter2_ii_60_43" x="0.386719" y="-8.86547" width="59.8359" height="69.55" filterUnits="userSpaceOnUse" color-interpolation-filters="sRGB">
<feFlood flood-opacity="0" result="BackgroundImageFix"/>
<feBlend mode="normal" in="SourceGraphic" in2="BackgroundImageFix" result="shape"/>
<feColorMatrix in="SourceAlpha" type="matrix" values="0 0 0 0 0 0 0 0 0 0 0 0 0 0 0 0 0 0 127 0" result="hardAlpha"/>
<feOffset dy="-9.73852"/>
<feGaussianBlur stdDeviation="20.0857"/>
<feComposite in2="hardAlpha" operator="arithmetic" k2="-1" k3="1"/>
<feColorMatrix type="matrix" values="0 0 0 0 1 0 0 0 0 0.341176 0 0 0 0 0.407843 0 0 0 1 0"/>
<feBlend mode="normal" in2="shape" result="effect1_innerShadow_60_43"/>
<feColorMatrix in="SourceAlpha" type="matrix" values="0 0 0 0 0 0 0 0 0 0 0 0 0 0 0 0 0 0 127 0" result="hardAlpha"/>
<feOffset dy="-4.86926"/>
<feGaussianBlur stdDeviation="18.8684"/>
<feComposite in2="hardAlpha" operator="arithmetic" k2="-1" k3="1"/>
<feColorMatrix type="matrix" values="0 0 0 0 0.9838 0 0 0 0 0.7975 0 0 0 0 1 0 0 0 1 0"/>
<feBlend mode="normal" in2="effect1_innerShadow_60_43" result="effect2_innerShadow_60_43"/>
</filter>
<filter id="filter3_f_60_43" x="0.182203" y="0.181227" width="60.2332" height="60.2332" filterUnits="userSpaceOnUse" color-interpolation-filters="sRGB">
<feFlood flood-opacity="0" result="BackgroundImageFix"/>
<feBlend mode="normal" in="SourceGraphic" in2="BackgroundImageFix" result="shape"/>
<feGaussianBlur stdDeviation="8.7087" result="effect1_foregroundBlur_60_43"/>
</filter>
<radialGradient id="paint0_radial_60_43" cx="0" cy="0" r="1" gradientUnits="userSpaceOnUse" gradientTransform="translate(30.6149 30.7882) rotate(90.2836) scale(23.2121 20.0669)">
<stop stop-color="#FF4880"/>
<stop offset="1" stop-color="#E400A4"/>
</radialGradient>
<radialGradient id="paint1_radial_60_43" cx="0" cy="0" r="1" gradientUnits="userSpaceOnUse" gradientTransform="translate(30.5 30.5) rotate(90) scale(23.5 23.5)">
<stop stop-color="#52ACFF"/>
<stop offset="1" stop-color="#0066FF"/>
</radialGradient>
<radialGradient id="paint2_radial_60_43" cx="0" cy="0" r="1" gradientUnits="userSpaceOnUse" gradientTransform="translate(29.9919 31.046) rotate(90) scale(22.2065 24.4312)">
<stop stop-color="#F4628F"/>
<stop offset="1" stop-color="#FFB3CA"/>
</radialGradient>
</defs>
</svg>
